<svg xmlns="http://www.w3.org/2000/svg" version="1.1" width="26" height="24" viewbox="0 0 96 96">
  <g transform="translate(0, 22)">
    <path d="M3.46-13.34L2.78-13.34Q2.5-13.63 2.5-13.87L2.5-13.87Q2.69-15.17 3.98-17.18L3.98-17.18Q6.24-20.59 9.65-21.12L9.65-21.12Q10.32-21.22 10.66-21.22L10.66-21.22Q12.34-21.22 13.75-20.35 15.17-19.49 15.79-18.19L15.79-18.19Q16.42-19.01 16.56-19.2L16.56-19.2Q18.34-21.22 20.64-21.22L20.64-21.22Q22.61-21.22 23.83-20.09 25.06-18.96 25.06-17.33L25.06-17.33Q25.06-15.84 24.22-14.83 23.38-13.82 21.98-13.82L21.98-13.82Q21.07-13.82 20.5-14.35 19.92-14.88 19.92-15.74L19.92-15.74Q19.92-17.95 22.32-18.77L22.32-18.77Q22.32-18.82 21.79-19.1L21.79-19.1Q21.31-19.39 20.4-19.39L20.4-19.39Q19.78-19.39 19.49-19.3L19.49-19.3Q17.66-18.53 16.8-16.13L16.8-16.13Q16.66-15.74 15.41-10.78 14.16-5.81 14.06-5.18L14.06-5.18Q13.92-4.46 13.92-3.74L13.92-3.74Q13.92-2.59 14.59-1.92 15.26-1.25 16.37-1.25L16.37-1.25Q18.38-1.25 20.02-2.95 21.65-4.66 22.22-6.72L22.22-6.72Q22.37-7.2 22.51-7.27 22.66-7.34 23.28-7.34L23.28-7.34Q24.19-7.34 24.19-6.96L24.19-6.96Q24.19-6.91 24.1-6.43L24.1-6.43Q23.28-3.46 20.74-1.25L20.74-1.25Q18.48 0.53 15.98 0.53L15.98 0.53Q12.62 0.53 10.9-2.5L10.9-2.5Q9.5-0.34 7.34 0.38L7.34 0.38Q6.91 0.48 6.1 0.48L6.1 0.48Q3.31 0.48 2.16-1.49L2.16-1.49Q1.68-2.3 1.68-3.41L1.68-3.41Q1.68-4.85 2.54-5.86 3.41-6.86 4.75-6.86L4.75-6.86Q6.82-6.86 6.82-4.85L6.82-4.85Q6.82-3.07 5.14-2.26L5.14-2.26Q5.04-2.21 4.9-2.14 4.75-2.06 4.66-2.02 4.56-1.97 4.51-1.97L4.51-1.97 4.37-1.92Q4.37-1.78 5.09-1.49L5.09-1.49Q5.66-1.25 6.34-1.25L6.34-1.25Q8.06-1.25 9.31-3.41L9.31-3.41Q9.84-4.27 11.18-9.65L11.18-9.65Q11.47-10.75 11.81-12.1 12.14-13.44 12.31-14.16 12.48-14.88 12.53-15.02L12.53-15.02Q12.77-16.32 12.77-16.9L12.77-16.9Q12.77-18.05 12.14-18.72 11.52-19.39 10.42-19.39L10.42-19.39Q8.26-19.39 6.67-17.74 5.09-16.08 4.46-13.92L4.46-13.92Q4.37-13.49 4.25-13.42 4.13-13.34 3.46-13.34L3.46-13.34Z" fill="#808080"></path>
  </g>
</svg>