<svg xmlns="http://www.w3.org/2000/svg" xmlns:xlink="http://www.w3.org/1999/xlink" viewBox="0 0 100 100" width="100" height="100" preserveAspectRatio="xMidYMid meet" style="width: 100%; height: 100%; transform: translate3d(0px, 0px, 0px); content-visibility: visible;"><defs><clipPath id="__lottie_element_466"><rect width="100" height="100" x="0" y="0"></rect></clipPath></defs><g clip-path="url(#__lottie_element_466)"><g transform="matrix(1,0,0,1,-110,-234)" opacity="0.3" style="display: block;"><g opacity="1" transform="matrix(0.8737269639968872,-0.823505699634552,0.823505699634552,0.8737269639968872,160,284)"><path stroke-linecap="round" stroke-linejoin="miter" fill-opacity="0" stroke-miterlimit="10" stroke="rgb(32,38,43)" stroke-opacity="1" stroke-width="6" d=" M36,0 C36,-19.881999969482422 19.881999969482422,-36 0,-36 C-19.881999969482422,-36 -36,-19.881999969482422 -36,0 C-36,19.881999969482422 -19.881999969482422,36 0,36 C19.881999969482422,36 36,19.881999969482422 36,0z"></path></g></g><g transform="matrix(1,0,0,1,-110,-234)" opacity="1" style="display: block;"><g opacity="1" transform="matrix(0.8737269639968872,-0.823505699634552,0.823505699634552,0.8737269639968872,160,284)"><path stroke-linecap="round" stroke-linejoin="miter" fill-opacity="0" stroke-miterlimit="10" stroke="rgb(32,38,43)" stroke-opacity="1" stroke-width="6" d=" M-6.28000020980835,35.45399856567383 C-4.241000175476074,35.8129997253418 -2.1419999599456787,36 0,36 C19.881999969482422,36 36,19.881999969482422 36,0"></path></g></g><g transform="matrix(3.059999942779541,0,0,3.059999942779541,36.22999954223633,29.267120361328125)" opacity="1" style="display: block;"><g opacity="1" transform="matrix(1,0,0,1,0,0)"><path stroke-linecap="round" stroke-linejoin="miter" fill-opacity="0" stroke-miterlimit="4" stroke="rgb(32,38,43)" stroke-opacity="1" stroke-width="1" d=" M4.326000213623047,1.7350000143051147 C4.326000213623047,1.7350000143051147 4.326000213623047,11.543999671936035 4.326000213623047,11.543999671936035"></path></g><g opacity="1" transform="matrix(1,0,0,1,2.497999906539917,2.497999906539917)"><path stroke-linecap="round" stroke-linejoin="miter" fill-opacity="0" stroke-miterlimit="4" stroke="rgb(32,38,43)" stroke-opacity="1" stroke-width="1" d=" M1.7910000085830688,-1.7920000553131104 C1.7910000085830688,-1.7920000553131104 -1.7910000085830688,1.7920000553131104 -1.7910000085830688,1.7920000553131104"></path></g><g opacity="1" transform="matrix(1,0,0,1,6.117000102996826,2.497999906539917)"><path stroke-linecap="round" stroke-linejoin="miter" fill-opacity="0" stroke-miterlimit="4" stroke="rgb(32,38,43)" stroke-opacity="1" stroke-width="1" d=" M-1.7920000553131104,-1.7910000085830688 C-1.7920000553131104,-1.7910000085830688 1.7920000553131104,1.7910000085830688 1.7920000553131104,1.7910000085830688"></path></g></g></g></svg>